<svg xmlns="http://www.w3.org/2000/svg" width="12" height="12" fill="none"><path fill="#fff" d="m7.508 6.519-1.533-.757c-.086-.042-.086-.166 0-.211l1.533-.757a12.8 12.8 0 0 0 3.377-2.416c.254-.254.413-.589.427-.945A1.383 1.383 0 0 0 9.88.001a1.42 1.42 0 0 0-.945.427A12.9 12.9 0 0 0 6.52 3.805l-.757 1.533c-.042.086-.166.086-.211 0l-.757-1.533A12.8 12.8 0 0 0 2.378.428 1.42 1.42 0 0 0 1.433 0 1.38 1.38 0 0 0 .001 1.433c.014.356.173.694.427.945a12.9 12.9 0 0 0 3.377 2.416l1.533.757c.086.042.086.166 0 .21l-1.533.758A12.8 12.8 0 0 0 .428 8.935 1.42 1.42 0 0 0 0 9.88a1.38 1.38 0 0 0 1.432 1.432 1.42 1.42 0 0 0 .945-.427 12.9 12.9 0 0 0 2.416-3.377l.757-1.533c.042-.086.166-.086.21 0l.758 1.533a12.8 12.8 0 0 0 2.416 3.377c.254.254.589.413.945.427.801.03 1.462-.63 1.432-1.432a1.42 1.42 0 0 0-.427-.945A12.8 12.8 0 0 0 7.508 6.52Z"/></svg>