<svg xmlns="http://www.w3.org/2000/svg" width="50" height="50" fill="none"><g clip-path="url(#a)"><path fill="#fff" d="M25 0a25 25 0 1 0 25 25A25.027 25.027 0 0 0 25 0m18.015 14.583h-6.71a41 41 0 0 0-5.878-9.675 20.9 20.9 0 0 1 12.588 9.675M34.375 25a21.3 21.3 0 0 1-.992 6.25H16.617a21.3 21.3 0 0 1-.992-6.25c.017-2.121.351-4.228.992-6.25h16.766a21.3 21.3 0 0 1 .992 6.25M18.288 35.417h13.424A40.9 40.9 0 0 1 25 44.975a40.8 40.8 0 0 1-6.712-9.558m0-20.834A40.9 40.9 0 0 1 25 5.025a40.8 40.8 0 0 1 6.712 9.558zm1.295-9.675a41 41 0 0 0-5.887 9.675h-6.71a20.9 20.9 0 0 1 12.597-9.675M5.127 18.75h7.165c-.54 2.04-.82 4.14-.834 6.25.014 2.11.294 4.21.834 6.25H5.127a20.8 20.8 0 0 1 0-12.5m1.858 16.667h6.71a41 41 0 0 0 5.888 9.675 20.9 20.9 0 0 1-12.598-9.675m23.442 9.675a41 41 0 0 0 5.877-9.675h6.71a20.9 20.9 0 0 1-12.587 9.675M44.873 31.25h-7.165c.54-2.04.82-4.14.834-6.25a25 25 0 0 0-.834-6.25h7.16a20.8 20.8 0 0 1 0 12.5z"/></g><defs><clipPath id="a"><path fill="#fff" d="M0 0h50v50H0z"/></clipPath></defs></svg>